<?xml version="1.0" encoding="utf-8"?>
<!-- Generator: Adobe Illustrator 22.0.1, SVG Export Plug-In . SVG Version: 6.00 Build 0)  -->
<svg version="1.1" id="Capa_1" xmlns="http://www.w3.org/2000/svg" xmlns:xlink="http://www.w3.org/1999/xlink" x="0px" y="0px"
	 viewBox="0 0 501.8 501.8" style="enable-background:new 0 0 501.8 501.8;" xml:space="preserve">
<style type="text/css">
	.st0{fill:none;}
	.st1{fill:#5C546A;}
	.st2{fill:#74749B;}
	.st3{fill:#FFB293;}
	.st4{fill:#DDD197;}
	.st5{fill:#D8D5C7;}
</style>
<g>
	<path class="st0" d="M294.5,367.7c-0.7,0.6-1.3,1.1-2,1.7C293.2,368.8,293.8,368.2,294.5,367.7z"/>
	<path class="st0" d="M300.4,362.6c-0.6,0.5-1.2,1-1.7,1.5C299.3,363.6,299.8,363.1,300.4,362.6z"/>
	<path class="st0" d="M288.3,372.9c-0.6,0.5-1.2,1-1.8,1.5C287.2,373.8,287.8,373.3,288.3,372.9z"/>
	<path class="st0" d="M249.2,402.6c-0.5,0.4-1.1,0.7-1.6,1.1C248.1,403.3,248.6,403,249.2,402.6z"/>
	<path class="st0" d="M313.9,350.5c-0.6,0.5-1.2,1.1-1.8,1.6C312.7,351.6,313.3,351,313.9,350.5z"/>
	<path class="st0" d="M262.7,393c-0.6,0.4-1.1,0.8-1.7,1.3C261.5,393.8,262.1,393.4,262.7,393z"/>
	<path class="st0" d="M268.9,388.3c-0.6,0.5-1.3,1-1.9,1.5C267.6,389.3,268.2,388.8,268.9,388.3z"/>
	<path class="st0" d="M442.6,175.6c-0.5,1.2-1,2.4-1.5,3.6C441.6,178,442.1,176.8,442.6,175.6z"/>
	<path class="st0" d="M437.6,54.4c0.1,0.1,0.2,0.1,0.2,0.2C437.8,54.5,437.7,54.4,437.6,54.4z"/>
	<path class="st0" d="M439.7,56.1c0.7,0.6,1.4,1.3,2,1.9C441.1,57.4,440.4,56.7,439.7,56.1z"/>
	<path class="st0" d="M243.3,406.6c-0.6,0.4-1.3,0.8-1.9,1.3C242,407.5,242.6,407.1,243.3,406.6z"/>
	<path class="st0" d="M325.8,339.2c-0.6,0.6-1.2,1.1-1.8,1.7C324.6,340.3,325.2,339.7,325.8,339.2z"/>
	<path class="st0" d="M319.9,344.8c-0.7,0.6-1.3,1.3-2,1.9C318.6,346,319.3,345.4,319.9,344.8z"/>
	<path class="st0" d="M274.8,383.8c-0.6,0.4-1.1,0.9-1.7,1.3C273.7,384.6,274.2,384.2,274.8,383.8z"/>
	<path class="st0" d="M43.2,362.5c-0.1,0.3-0.1,0.5-0.2,0.8C43.1,363,43.2,362.7,43.2,362.5z"/>
	<path class="st0" d="M42.3,366.5c0,0.1-0.1,0.3-0.1,0.4C42.3,366.8,42.3,366.7,42.3,366.5z"/>
	<path class="st0" d="M47.4,347.3C47.4,347.3,47.4,347.3,47.4,347.3C47.4,347.3,47.4,347.3,47.4,347.3L47.4,347.3z"/>
	<path class="st0" d="M44.3,358.4c-0.1,0.3-0.2,0.7-0.3,1C44.1,359,44.2,358.7,44.3,358.4z"/>
	<path class="st0" d="M45.3,354.4c-0.1,0.3-0.2,0.7-0.3,1C45.1,355,45.2,354.7,45.3,354.4z"/>
	<path class="st0" d="M48.8,343.2c-0.4,1.2-0.8,2.4-1.2,3.5C48,345.6,48.4,344.4,48.8,343.2z"/>
	<path class="st0" d="M237.1,410.7c-0.5,0.4-1.1,0.7-1.6,1.1C236,411.4,236.6,411,237.1,410.7z"/>
	<path class="st0" d="M448.8,159.1c14.8-43.8,13.6-80.4-7-101.1l0,0C462.4,78.7,463.6,115.3,448.8,159.1z"/>
	<path class="st1" d="M477.7,22C421-34.7,272.6,21.9,146.2,148.3C301.7,26.2,386.4,32.1,420.8,45.2c6.3,2.2,11.9,5.2,16.8,9.2
		c0.1,0.1,0.2,0.1,0.2,0.2c0.6,0.5,1.2,1,1.8,1.5c0.7,0.6,1.4,1.3,2,1.9l0,0l0,0l0,0c20.7,20.7,21.9,57.3,7,101.1
		c-1.8,5.4-3.9,10.9-6.2,16.4c-0.5,1.2-1,2.4-1.5,3.6c-20.6,48.4-58.5,103.3-109.6,154.3c-1.9,1.9-3.8,3.8-5.7,5.7
		c-0.6,0.6-1.2,1.1-1.8,1.7c-1.4,1.3-2.7,2.6-4.1,3.9c-0.7,0.6-1.3,1.3-2,1.9c-1.4,1.3-2.7,2.6-4.1,3.8c-0.6,0.5-1.2,1.1-1.8,1.6
		c-3.9,3.6-7.8,7-11.7,10.5c-0.6,0.5-1.2,1-1.7,1.5c-1.4,1.2-2.8,2.4-4.2,3.6c-0.7,0.6-1.3,1.1-2,1.7c-1.4,1.2-2.8,2.3-4.2,3.5
		c-0.6,0.5-1.2,1-1.8,1.5c-3.9,3.2-7.9,6.4-11.8,9.4c-0.6,0.4-1.1,0.9-1.7,1.3c-1.4,1.1-2.8,2.2-4.3,3.3c-0.6,0.5-1.3,1-1.9,1.5
		c-1.4,1.1-2.8,2.1-4.2,3.2c-0.6,0.4-1.1,0.8-1.7,1.3c-3.9,2.9-7.9,5.7-11.8,8.4c-0.5,0.4-1.1,0.7-1.6,1.1c-1.4,1-2.9,2-4.3,2.9
		c-0.6,0.4-1.3,0.8-1.9,1.3c-1.4,0.9-2.8,1.9-4.3,2.8c-0.5,0.4-1.1,0.7-1.6,1.1c-1.9,1.2-3.9,2.5-5.8,3.7
		c94.9-57.2,214.7-151,258.4-267.5C505.9,93.9,503.9,48.2,477.7,22z"/>
	<path class="st1" d="M42.2,367c0-0.1,0.1-0.3,0.1-0.4c0.2-1.1,0.5-2.2,0.7-3.3c0.1-0.3,0.1-0.5,0.2-0.8c0.2-1,0.5-2.1,0.8-3.1
		c0.1-0.3,0.2-0.7,0.3-1c0.3-1,0.5-2,0.8-3c0.1-0.3,0.2-0.6,0.3-1c0.7-2.3,1.3-4.7,2.1-7.1v0c0,0,0,0,0,0c0.1-0.2,0.1-0.3,0.2-0.5
		c0.4-1.2,0.7-2.4,1.2-3.5c17.8-53,59-116.5,117.5-175C206,128.5,248,96.8,287.5,74.9C35.7,211.8-36.1,423.6,20,479.8
		c47.5,47.5,159.2,15.5,268.5-70.3c-185,94.5-232.6,54.1-245,14.4C37.9,408.4,37.6,389,42.2,367z"/>
	<path class="st2" d="M237.1,410.7c1.4-0.9,2.8-1.8,4.3-2.8c0.6-0.4,1.3-0.8,1.9-1.3c1.4-1,2.9-1.9,4.3-2.9c0.5-0.4,1.1-0.7,1.6-1.1
		c3.9-2.7,7.9-5.5,11.8-8.4c0.6-0.4,1.1-0.8,1.7-1.3c1.4-1,2.8-2.1,4.2-3.2c0.6-0.5,1.3-1,1.9-1.5c1.4-1.1,2.8-2.2,4.3-3.3
		c0.6-0.4,1.1-0.9,1.7-1.3c3.9-3.1,7.9-6.2,11.8-9.4c0.6-0.5,1.2-1,1.8-1.5c1.4-1.2,2.8-2.3,4.2-3.5c0.7-0.6,1.3-1.1,2-1.7
		c1.4-1.2,2.8-2.4,4.2-3.6c0.6-0.5,1.2-1,1.7-1.5c3.9-3.4,7.8-6.9,11.7-10.5c0.6-0.5,1.2-1.1,1.8-1.6c1.4-1.3,2.7-2.5,4.1-3.8
		c0.7-0.6,1.3-1.2,2-1.9c1.4-1.3,2.7-2.6,4.1-3.9c0.6-0.6,1.2-1.1,1.8-1.7c1.9-1.9,3.8-3.8,5.7-5.7c51-51,89-106,109.6-154.3
		c0.5-1.2,1-2.4,1.5-3.6c2.3-5.6,4.4-11.1,6.2-16.4c14.8-43.8,13.6-80.4-7-101.1l0,0l0,0c-0.7-0.7-1.4-1.3-2-1.9
		c-0.6-0.5-1.2-1-1.8-1.5c-0.1-0.1-0.2-0.1-0.2-0.2c-4.9-4-10.6-7-16.8-9.2c-31.9-11.1-80.3,0.4-133.3,29.7
		C248,96.8,206,128.5,166.2,168.3c-58.5,58.5-99.7,122-117.5,175c-0.4,1.2-0.8,2.4-1.2,3.5c-0.1,0.2-0.1,0.3-0.2,0.5c0,0,0,0,0,0.1
		c-0.8,2.4-1.4,4.8-2.1,7.1c-0.1,0.3-0.2,0.7-0.3,1c-0.3,1-0.5,2-0.8,3c-0.1,0.3-0.2,0.7-0.3,1c-0.3,1-0.5,2.1-0.8,3.1
		c-0.1,0.3-0.1,0.5-0.2,0.8c-0.3,1.1-0.5,2.2-0.7,3.3c0,0.1-0.1,0.3-0.1,0.4c-4.6,22-4.4,41.4,1.3,56.9c2.8,7.6,6.9,14.3,12.5,19.9
		c31.4,31.4,99.5,17.8,173.7-28.3c1.9-1.2,3.9-2.4,5.8-3.7C236,411.4,236.6,411,237.1,410.7z M92,407.8
		c-32.4-32.4,11.6-128.9,98.2-215.5S373.3,61.6,405.7,94s-11.6,128.9-98.2,215.5S124.4,440.1,92,407.8z"/>
	<path class="st3" d="M405.7,94c-32.4-32.4-128.9,11.6-215.5,98.2S59.6,375.4,92,407.8s128.9-11.6,215.5-98.2
		C394.1,222.9,438.1,126.4,405.7,94z M138.3,361.5c-20.4-20.4,12.6-86.4,73.7-147.4s127.1-94.1,147.4-73.7
		c20.4,20.4-12.6,86.4-73.7,147.4C224.7,348.8,158.7,381.8,138.3,361.5z"/>
	<path class="st4" d="M359.4,140.3C339.1,120,273.1,153,212,214s-94.1,127.1-73.7,147.4s86.4-12.6,147.4-73.7
		C346.8,226.7,379.8,160.7,359.4,140.3z M263.6,265.6C231,298.2,198,318,189.9,309.9s-0.4-53.2,32.2-85.7s77.6-40.4,85.7-32.2
		C316,200.1,296.2,233.1,263.6,265.6z"/>
	<path class="st5" d="M222.1,224.1c-32.6,32.6-40.4,77.6-32.2,85.7s41.1-11.7,73.7-44.2c32.6-32.6,52.4-65.6,44.2-73.7
		C299.7,183.8,254.7,191.6,222.1,224.1z"/>
</g>
</svg>
