<?xml version="1.0" encoding="utf-8"?>
<!-- Generator: Adobe Illustrator 22.0.1, SVG Export Plug-In . SVG Version: 6.00 Build 0)  -->
<svg version="1.1" id="Capa_1" xmlns="http://www.w3.org/2000/svg" xmlns:xlink="http://www.w3.org/1999/xlink" x="0px" y="0px"
	 viewBox="0 0 488 488" style="enable-background:new 0 0 488 488;" xml:space="preserve">
<style type="text/css">
	.st0{fill:none;}
	.st1{fill:#B6B8BE;}
	.st2{fill:#FFEDB9;}
	.st3{fill:#FFD586;}
</style>
<g>
	<path class="st0" d="M231.8,28c-1.3,0-1.8,0-1.9,0"/>
	<path class="st1" d="M57.4,103.5c1.5,1.3,3.4,1.9,5.2,1.9c2.2,0,4.5-1,6.1-2.8c2.9-3.3,2.5-8.4-0.8-11.3c-3.4-2.9-8.4-2.6-11.3,0.8
		C53.6,95.5,54,100.6,57.4,103.5z"/>
	<path class="st1" d="M39.3,358.6c-3.7,2.4-4.8,7.4-2.4,11c1.5,2.4,4.2,3.7,6.7,3.7c1.5,0,3-0.4,4.4-1.3c3.7-2.4,4.7-7.4,2.4-11
		C47.9,357.2,43,356.2,39.3,358.6z"/>
	<path class="st1" d="M57.6,384.8c-3.4,2.9-3.7,7.9-0.8,11.3c1.5,1.8,3.8,2.7,6,2.7c1.9,0,3.8-0.6,5.3-1.9c3.3-2.9,3.7-8,0.8-11.3
		C66,382.2,60.9,381.9,57.6,384.8z"/>
	<path class="st1" d="M90.6,407.4L90.6,407.4c-3.3-2.9-8.3-2.6-11.3,0.8c-2.9,3.4-2.5,8.4,0.8,11.3c1.5,1.4,3.4,2,5.3,2
		c2.2,0,4.5-1,6.1-2.8C94.4,415.3,94,410.2,90.6,407.4z"/>
	<path class="st1" d="M115.4,425.8c-3.7-2.4-8.6-1.3-11,2.4c-2.4,3.8-1.3,8.7,2.4,11c1.4,0.9,2.8,1.3,4.3,1.3c2.6,0,5.2-1.3,6.7-3.7
		C120.2,433.2,119.1,428.2,115.4,425.8z"/>
	<path class="st1" d="M8,252.2c4.4-0.1,8-3.6,8-8c0-4.5-3.6-8-8-8s-8,3.5-8,8C0,248.6,3.6,252.2,8,252.2z"/>
	<path class="st1" d="M35.5,333.9c-1.8-4-6.6-5.8-10.6-3.9c-4,1.8-5.8,6.6-3.9,10.6c1.4,3,4.2,4.7,7.3,4.7c1.1,0,2.2-0.2,3.4-0.8
		C35.6,342.6,37.4,337.9,35.5,333.9z"/>
	<path class="st1" d="M24.7,305c-1.2-4.2-5.7-6.6-9.9-5.4c-4.2,1.2-6.6,5.7-5.4,9.9c1,3.4,4.2,5.8,7.7,5.8c0.7,0,1.5-0.2,2.2-0.4
		C23.5,313.8,26,309.3,24.7,305z"/>
	<path class="st1" d="M293,451.3c-4.2,1.2-6.6,5.7-5.4,9.9c1,3.4,4.2,5.7,7.7,5.7c0.7,0,1.5-0.1,2.2-0.3c4.2-1.2,6.6-5.7,5.4-9.9
		C301.8,452.4,297.4,450,293,451.3z"/>
	<path class="st1" d="M263,457.8c-4.4,0.6-7.4,4.6-6.8,9c0.6,4,4,6.8,7.9,6.8c0.4,0,0.8,0,1.2-0.1c-0.1,0-0.1,0-0.1,0
		c4.4-0.6,7.4-4.6,6.8-9C271.4,460.2,267.4,457.2,263,457.8z"/>
	<path class="st1" d="M321.9,440.5c-4,1.8-5.8,6.6-3.9,10.6c1.3,3,4.2,4.6,7.3,4.6c1.1,0,2.2-0.2,3.3-0.7c4-1.8,5.8-6.6,3.9-10.6
		C330.6,440.3,325.9,438.6,321.9,440.5z"/>
	<path class="st1" d="M9.1,220.2c0.4,0.1,0.7,0.1,1.1,0.1c3.9,0,7.4-2.9,7.9-6.9c0.6-4.4-2.5-8.4-6.8-9c-4.4-0.6-8.5,2.4-9,6.8
		C1.7,215.6,4.7,219.6,9.1,220.2z"/>
	<path class="st1" d="M349,425.6c-3.8,2.4-4.8,7.4-2.4,11.1c1.5,2.3,4.1,3.6,6.7,3.6c1.5,0,3-0.4,4.3-1.3c3.8-2.4,4.8-7.3,2.4-11
		C357.6,424.3,352.6,423.2,349,425.6z"/>
	<path class="st1" d="M201.4,457.8c-4.4-0.6-8.4,2.4-9,6.8c-0.6,4.4,2.4,8.4,6.8,9c0.4,0.1,0.8,0.1,1.2,0.1c3.8,0,7.3-2.9,7.8-6.9
		C208.9,462.5,205.8,458.5,201.4,457.8z"/>
	<path class="st1" d="M171.4,451.4c-4.2-1.2-8.7,1.2-9.9,5.4c-1.3,4.2,1.1,8.7,5.4,9.9c0.1,0,0.1,0,0.1,0c0.7,0.2,1.4,0.3,2.2,0.3
		c3.5,0,6.7-2.2,7.8-5.8C178,457,175.5,452.6,171.4,451.4z"/>
	<path class="st1" d="M232.2,460c-4.5,0-8,3.6-8,8c0,4.4,3.5,8,8,8c4.4,0,8-3.6,8-8C240.2,463.6,236.6,460,232.2,460z"/>
	<path class="st1" d="M142.4,440.6c-4-1.8-8.7-0.1-10.6,3.9c-1.8,4-0.1,8.8,3.9,10.6c1.1,0.5,2.2,0.7,3.4,0.7c3,0,5.9-1.8,7.3-4.7
		C148.2,447.2,146.5,442.5,142.4,440.6z"/>
	<path class="st1" d="M321.6,47.4c1,0.5,2.2,0.7,3.3,0.7c3,0,5.9-1.7,7.3-4.6c1.8-4,0.1-8.8-3.9-10.6c-4-1.8-8.8,0-10.6,4
		C315.8,40.8,317.6,45.5,321.6,47.4z"/>
	<path class="st1" d="M373.6,407.1c-3.4,2.9-3.8,7.9-0.8,11.3c1.6,1.8,3.8,2.7,6,2.7c1.9,0,3.8-0.6,5.3-1.9c3.4-2.9,3.7-8,0.8-11.3
		C381.9,404.6,376.9,404.2,373.6,407.1z"/>
	<path class="st1" d="M348.6,62.2c1.4,0.9,2.9,1.3,4.3,1.3c2.6,0,5.2-1.3,6.7-3.7c2.4-3.8,1.4-8.6-2.4-11c-3.7-2.4-8.6-1.4-11,2.4
		C343.8,54.8,345,59.8,348.6,62.2z"/>
	<path class="st1" d="M292.7,36.6c0.7,0.2,1.4,0.3,2.2,0.3c3.5,0,6.7-2.2,7.8-5.8c1.2-4.2-1.2-8.7-5.4-9.9c-4.2-1.2-8.7,1.2-9.9,5.4
		C286,31,288.5,35.4,292.7,36.6z"/>
	<path class="st1" d="M262.6,30.2c0.4,0.1,0.8,0.1,1.1,0.1c3.9,0,7.4-2.9,7.9-6.9c0.6-4.4-2.4-8.4-6.8-9c-4.4-0.6-8.4,2.4-9,6.8
		C255.1,25.4,258.2,29.5,262.6,30.2z"/>
	<path class="st1" d="M231.8,28C231.8,28,231.8,28,231.8,28c4.5,0,8.1-3.6,8.1-8c-0.1-4.4-3.6-8-8.1-8c-4.4,0-8,3.6-8,8
		C223.8,24.4,227.4,28,231.8,28z"/>
	<path class="st1" d="M439.3,183c1,3.4,4.2,5.8,7.6,5.8c0.8,0,1.5-0.2,2.3-0.3c4.2-1.3,6.6-5.8,5.4-9.9c0-0.1,0-0.1,0-0.1
		c-1.3-4.2-5.8-6.6-10-5.4C440.4,174.2,438,178.7,439.3,183z"/>
	<path class="st1" d="M14.7,188.7c0.7,0.2,1.5,0.3,2.2,0.3c3.4,0,6.6-2.2,7.7-5.8c1.2-4.2-1.2-8.6-5.4-9.9c-4.2-1.2-8.7,1.3-9.9,5.5
		c0-0.1,0-0.1,0-0.1C8.1,183,10.5,187.5,14.7,188.7z"/>
	<path class="st1" d="M373.4,80.6c1.5,1.3,3.4,1.9,5.2,1.9c2.2,0,4.5-0.9,6.1-2.7c2.9-3.4,2.5-8.4-0.8-11.3
		c-3.4-2.9-8.4-2.6-11.3,0.8C369.6,72.7,370,77.8,373.4,80.6z"/>
	<path class="st1" d="M428.5,154.1c1.4,3,4.2,4.7,7.3,4.7c1,0,2.2-0.2,3.3-0.8c4-1.8,5.8-6.6,3.9-10.6c0.1,0,0.1,0,0.1,0
		c-1.8-4-6.6-5.8-10.6-3.9S426.6,150.1,428.5,154.1z"/>
	<path class="st1" d="M39.1,129.8c1.3,0.9,2.8,1.3,4.3,1.3c2.6,0,5.2-1.3,6.7-3.7c2.4-3.8,1.3-8.7-2.4-11c-3.8-2.4-8.7-1.4-11,2.4
		C34.3,122.4,35.4,127.4,39.1,129.8z"/>
	<path class="st1" d="M24.8,158.4c1,0.5,2.2,0.7,3.3,0.7c3,0,5.9-1.8,7.3-4.7c1.8-4,0.1-8.7-3.9-10.6c-4.1-1.8-8.8-0.1-10.6,3.9
		C19,151.8,20.7,156.6,24.8,158.4z"/>
	<path class="st1" d="M199.9,30.2c0.4,0,0.7,0,1.1-0.1c4.4-0.6,7.4-4.6,6.8-9c-0.6-4.4-4.7-7.4-9-6.8c-4.4,0.6-7.4,4.7-6.8,9
		C192.6,27.4,196,30.2,199.9,30.2z"/>
	<path class="st1" d="M85.2,82.8c1.8,0,3.7-0.6,5.2-1.9c3.4-3,3.8-8,0.8-11.4c-2.9-3.3-7.9-3.7-11.3-0.7c-3.4,2.9-3.7,7.9-0.8,11.3
		C80.7,81.8,83,82.8,85.2,82.8z"/>
	<path class="st1" d="M168.7,37c0.7,0,1.4-0.1,2.2-0.3c4.2-1.3,6.6-5.7,5.4-9.9c-1.2-4.2-5.7-6.6-9.9-5.4c-4.2,1.3-6.6,5.7-5.4,10
		C162.1,34.8,165.2,37,168.7,37z"/>
	<path class="st1" d="M110.7,63.6c1.5,0,3-0.4,4.3-1.3c3.8-2.4,4.8-7.3,2.4-11c-2.4-3.7-7.4-4.8-11-2.4c-3.8,2.4-4.8,7.4-2.4,11.1
		C105.5,62.3,108.1,63.6,110.7,63.6z"/>
	<path class="st1" d="M138.8,48.2c1,0,2.2-0.2,3.3-0.7c4-1.8,5.8-6.6,3.9-10.6c-1.8-4.1-6.6-5.8-10.6-4c-4.1,1.8-5.8,6.6-4,10.6
		C132.8,46.6,135.8,48.2,138.8,48.2z"/>
	<path class="st1" d="M11.4,284c4.4-0.6,7.4-4.6,6.8-9c-0.6-4.4-4.6-7.4-9-6.8c-4.4,0.6-7.4,4.7-6.8,9c0.6,4,4,6.9,7.9,6.9
		C10.6,284.1,11,284.1,11.4,284z"/>
	<path class="st1" d="M457.6,212c0.2,0,0.4,0,0.6,0c0.3,0,0.7,0,1,0.1c0.3,0,0.5,0.1,0.7,0.1c0.3,0,0.5,0.1,0.8,0.1
		c0.3,0,0.6,0.1,0.8,0.1c0,0,0,0,0.1,0c0-0.6,0-1.1-0.1-1.7c-0.6-4.4-4.6-7.4-9-6.8c-4.3,0.6-7.4,4.7-6.7,9c0,0.2,0.1,0.4,0.1,0.6
		c3.2-1,6.5-1.6,10.1-1.6C456.5,212,457.1,212,457.6,212z"/>
	<path class="st1" d="M439.2,329.6c-4-1.8-8.7-0.1-10.6,3.9c-1.8,4.1-0.1,8.8,3.9,10.6c1.1,0.5,2.2,0.7,3.4,0.7c3,0,5.9-1.8,7.3-4.7
		C445,336.2,443.2,331.4,439.2,329.6z"/>
	<path class="st1" d="M445.9,274.4c0,0.1,0,0.1,0,0.2c-0.6,4.3,2.4,8.4,6.8,9c0.4,0,0.8,0.1,1.1,0.1c3.9,0,7.4-2.9,7.9-6.9
		c0-0.1,0-0.1,0-0.1c0.1-0.4,0.1-0.8,0.1-1.2c-1.9,0.3-3.8,0.5-5.8,0.5C452.5,276,449.1,275.4,445.9,274.4z"/>
	<path class="st1" d="M424.9,358.2c-3.7-2.4-8.6-1.4-11,2.4c-2.4,3.7-1.3,8.6,2.4,11c1.4,0.9,2.9,1.3,4.3,1.3c2.6,0,5.2-1.3,6.7-3.7
		C429.7,365.5,428.6,360.6,424.9,358.2z"/>
	<path class="st1" d="M449.3,299.2c-4.2-1.2-8.6,1.2-9.9,5.4c-1.3,4.2,1.2,8.7,5.4,9.9c0.7,0.2,1.5,0.3,2.2,0.3
		c3.4,0,6.6-2.2,7.7-5.8C455.9,304.9,453.5,300.5,449.3,299.2z"/>
	<path class="st1" d="M401.2,105.2c1.8,0,3.7-0.6,5.2-1.9c3.4-3,3.8-8,0.8-11.3c0-0.1,0-0.1,0-0.1c-2.9-3.3-7.9-3.7-11.3-0.8
		c-3.3,3-3.7,8-0.8,11.4C396.7,104.2,399,105.2,401.2,105.2z"/>
	<path class="st1" d="M406.6,384.5c-3.4-2.9-8.4-2.5-11.3,0.8c-2.9,3.4-2.5,8.4,0.8,11.3c1.5,1.4,3.4,2,5.3,2c2.2,0,4.5-1,6-2.8
		C410.4,392.4,410,387.4,406.6,384.5z"/>
	<path class="st1" d="M420.4,130.8c1.4,0,3-0.5,4.3-1.4c3.7-2.3,4.8-7.3,2.4-11c-2.4-3.7-7.4-4.7-11-2.3c-3.8,2.3-4.8,7.3-2.4,11
		C415.2,129.4,417.8,130.8,420.4,130.8z"/>
	<path class="st2" d="M488,244c0-9.7-4.3-18.3-11.1-24.2c0.4,0.3,0.7,0.6,1.1,1c-1.3-0.2-2.6-0.2-3.9-0.2c-17.7,0-32,14.3-32,32
		c0,9.1,3.8,17.4,10,23.2c-4.5-0.5-8.6-2-12.3-4.2c1.9,1.1,3.9,2,6.1,2.8c3.2,1.1,6.6,1.6,10.1,1.6c2,0,3.9-0.2,5.8-0.5
		C476.7,272.8,488,259.7,488,244z"/>
	<path class="st2" d="M424.8,250.9c0-0.2-0.1-0.4-0.1-0.7C424.7,250.4,424.7,250.7,424.8,250.9z"/>
	<path class="st2" d="M426.6,256.7c-0.1-0.2-0.2-0.5-0.3-0.7C426.4,256.3,426.5,256.5,426.6,256.7z"/>
	<path class="st2" d="M426.1,255.3c-0.1-0.2-0.2-0.5-0.3-0.7C425.9,254.8,426,255.1,426.1,255.3z"/>
	<path class="st2" d="M425.1,252.4c-0.1-0.2-0.1-0.5-0.2-0.7C425,251.9,425.1,252.2,425.1,252.4z"/>
	<path class="st2" d="M425.6,253.9c-0.1-0.2-0.1-0.5-0.2-0.7C425.4,253.4,425.5,253.6,425.6,253.9z"/>
	<path class="st2" d="M427.3,258.1c-0.1-0.2-0.2-0.5-0.3-0.7C427,257.6,427.1,257.8,427.3,258.1z"/>
	<path class="st2" d="M439.8,271.6c-0.4-0.2-0.8-0.5-1.1-0.7C439,271.1,439.4,271.4,439.8,271.6z"/>
	<path class="st2" d="M432,265.1c-0.3-0.3-0.5-0.6-0.8-0.9C431.5,264.5,431.7,264.8,432,265.1z"/>
	<path class="st2" d="M437.3,270c-0.3-0.2-0.6-0.5-1-0.7C436.7,269.5,437,269.7,437.3,270z"/>
	<path class="st2" d="M432.9,266.2c-0.3-0.3-0.5-0.6-0.8-0.8C432.4,265.6,432.7,265.9,432.9,266.2z"/>
	<path class="st2" d="M431.2,264.2c-0.8-1-1.6-2.1-2.3-3.2C429.6,262.1,430.4,263.2,431.2,264.2z"/>
	<path class="st2" d="M428.7,260.7c-0.2-0.3-0.3-0.5-0.5-0.8C428.4,260.2,428.5,260.5,428.7,260.7z"/>
	<path class="st2" d="M428,259.4c-0.1-0.2-0.3-0.5-0.4-0.7C427.7,258.9,427.8,259.2,428,259.4z"/>
	<path class="st2" d="M436.2,269.1c-0.3-0.2-0.6-0.5-0.9-0.7C435.6,268.6,435.9,268.9,436.2,269.1z"/>
	<path class="st2" d="M438.5,270.8c-0.3-0.2-0.7-0.5-1-0.7C437.8,270.4,438.2,270.6,438.5,270.8z"/>
	<path class="st2" d="M468.1,214.4c0.4,0.1,0.7,0.3,1.1,0.5C468.9,214.7,468.5,214.5,468.1,214.4z"/>
	<path class="st2" d="M472.1,216.4c0.4,0.2,0.8,0.5,1.1,0.7C472.9,216.8,472.5,216.6,472.1,216.4z"/>
	<path class="st2" d="M470.8,215.7c0.4,0.2,0.8,0.4,1.1,0.6C471.6,216.1,471.2,215.9,470.8,215.7z"/>
	<path class="st2" d="M424.5,249.4c0-0.2-0.1-0.4-0.1-0.7C424.4,248.9,424.4,249.1,424.5,249.4z"/>
	<path class="st2" d="M434,267.2c-0.3-0.3-0.5-0.5-0.8-0.8C433.4,266.7,433.7,266.9,434,267.2z"/>
	<path class="st2" d="M473.4,217.1c0.4,0.3,0.8,0.5,1.1,0.8C474.2,217.7,473.8,217.4,473.4,217.1z"/>
	<path class="st2" d="M474.6,218c0.4,0.3,0.8,0.6,1.1,0.8C475.4,218.5,475,218.2,474.6,218z"/>
	<path class="st2" d="M435,268.2c-0.3-0.2-0.6-0.5-0.8-0.8C434.5,267.7,434.7,267.9,435,268.2z"/>
	<path class="st2" d="M475.8,218.9c0.4,0.3,0.8,0.6,1.1,0.9C476.5,219.5,476.2,219.2,475.8,218.9z"/>
	<path class="st2" d="M469.5,215c0.4,0.2,0.7,0.4,1.1,0.5C470.2,215.3,469.9,215.2,469.5,215z"/>
	<path class="st2" d="M424.1,246.1c0-0.2,0-0.3,0-0.5C424,245.8,424.1,245.9,424.1,246.1z"/>
	<path class="st2" d="M424.2,247.8c0-0.2-0.1-0.4-0.1-0.6C424.2,247.4,424.2,247.6,424.2,247.8z"/>
	<path class="st2" d="M466.7,213.9c0.4,0.1,0.7,0.3,1,0.4C467.4,214.1,467.1,214,466.7,213.9z"/>
	<path class="st2" d="M462.3,212.6c0.3,0.1,0.6,0.1,0.9,0.2C462.9,212.8,462.6,212.7,462.3,212.6z"/>
	<path class="st2" d="M463.8,213c0.3,0.1,0.6,0.2,1,0.3C464.5,213.1,464.1,213,463.8,213z"/>
	<path class="st2" d="M465.3,213.4c0.3,0.1,0.7,0.2,1,0.3C466,213.6,465.6,213.5,465.3,213.4z"/>
	<path class="st2" d="M461.6,212.5c-0.3,0-0.6-0.1-0.8-0.1C461.1,212.4,461.3,212.5,461.6,212.5z"/>
	<path class="st2" d="M460,212.3c-0.2,0-0.5-0.1-0.7-0.1C459.5,212.2,459.7,212.2,460,212.3z"/>
	<path class="st2" d="M458.2,212.1c-0.2,0-0.4,0-0.6,0C457.8,212.1,458,212.1,458.2,212.1z"/>
	<path class="st3" d="M452.1,275.8c-6.2-5.8-10-14.1-10-23.2c0-17.7,14.3-32,32-32c1.3,0,2.6,0.1,3.9,0.2c-0.4-0.3-0.7-0.7-1.1-1
		c0,0,0,0,0,0c-0.4-0.3-0.7-0.6-1.1-0.9c0,0,0,0,0,0c-0.4-0.3-0.7-0.6-1.1-0.8c0,0-0.1,0-0.1-0.1c-0.4-0.3-0.8-0.5-1.1-0.8
		c0,0-0.1-0.1-0.1-0.1c-0.4-0.2-0.8-0.5-1.1-0.7c-0.1,0-0.1-0.1-0.2-0.1c-0.4-0.2-0.7-0.4-1.1-0.6c-0.1,0-0.2-0.1-0.2-0.1
		c-0.4-0.2-0.7-0.4-1.1-0.5c-0.1,0-0.2-0.1-0.3-0.1c-0.4-0.2-0.7-0.3-1.1-0.5c-0.1-0.1-0.2-0.1-0.4-0.1c-0.3-0.1-0.7-0.3-1-0.4
		c-0.1-0.1-0.3-0.1-0.4-0.1c-0.3-0.1-0.7-0.2-1-0.3c-0.2-0.1-0.3-0.1-0.5-0.1c-0.3-0.1-0.6-0.2-1-0.3c-0.2-0.1-0.4-0.1-0.6-0.1
		c-0.3-0.1-0.6-0.1-0.9-0.2c-0.2,0-0.4-0.1-0.6-0.1c0,0,0,0-0.1,0c-0.3,0-0.6-0.1-0.8-0.1c-0.3,0-0.5-0.1-0.8-0.1
		c-0.2,0-0.5-0.1-0.7-0.1c-0.3,0-0.7-0.1-1-0.1c-0.2,0-0.4,0-0.6,0c-0.5,0-1.1,0-1.6,0c-3.5,0-6.9,0.6-10.1,1.6
		c-12.7,4.2-21.9,16.2-21.9,30.4c0,0.5,0,1.1,0,1.6c0,0.2,0,0.4,0,0.5c0,0.3,0,0.7,0.1,1c0,0.2,0,0.4,0.1,0.6c0,0.3,0.1,0.6,0.1,0.9
		c0,0.2,0.1,0.4,0.1,0.7c0,0.3,0.1,0.6,0.2,0.9c0,0.2,0.1,0.5,0.1,0.7c0.1,0.3,0.1,0.5,0.2,0.8c0.1,0.2,0.1,0.5,0.2,0.7
		c0.1,0.3,0.1,0.5,0.2,0.8c0.1,0.2,0.1,0.5,0.2,0.7c0.1,0.3,0.2,0.5,0.3,0.7c0.1,0.2,0.2,0.5,0.3,0.7c0.1,0.2,0.2,0.5,0.3,0.7
		c0.1,0.2,0.2,0.5,0.3,0.7c0.1,0.2,0.2,0.4,0.3,0.7c0.1,0.2,0.2,0.5,0.3,0.7c0.1,0.2,0.2,0.4,0.3,0.6c0.1,0.2,0.2,0.5,0.4,0.7
		c0.1,0.2,0.2,0.3,0.3,0.5c0.1,0.3,0.3,0.5,0.5,0.8c0.1,0.1,0.1,0.2,0.2,0.3c0.7,1.1,1.5,2.2,2.3,3.2c0,0,0,0,0,0
		c0.3,0.3,0.5,0.6,0.8,0.9c0.1,0.1,0.1,0.1,0.2,0.2c0.3,0.3,0.5,0.6,0.8,0.8c0.1,0.1,0.1,0.2,0.2,0.2c0.3,0.3,0.5,0.5,0.8,0.8
		c0.1,0.1,0.2,0.1,0.2,0.2c0.3,0.3,0.6,0.5,0.8,0.8c0.1,0.1,0.2,0.1,0.2,0.2c0.3,0.3,0.6,0.5,0.9,0.7c0.1,0.1,0.1,0.1,0.2,0.2
		c0.3,0.2,0.6,0.5,1,0.7c0.1,0,0.1,0.1,0.2,0.1c0.3,0.2,0.7,0.5,1,0.7c0,0,0.1,0.1,0.1,0.1c0.4,0.2,0.7,0.5,1.1,0.7c0,0,0,0,0,0
		C443.5,273.8,447.7,275.2,452.1,275.8z"/>
</g>
</svg>
