<?xml version="1.0" encoding="utf-8"?>
<!-- Generator: Adobe Illustrator 22.0.1, SVG Export Plug-In . SVG Version: 6.00 Build 0)  -->
<svg version="1.1" id="Слой_1" xmlns="http://www.w3.org/2000/svg" xmlns:xlink="http://www.w3.org/1999/xlink" x="0px" y="0px"
	 viewBox="0 0 50 50" style="enable-background:new 0 0 50 50;" xml:space="preserve">
<style type="text/css">
	.st0{fill:#FE5F55;}
	.st1{fill:#333333;}
	.st2{font-family:'Verdana';}
	.st3{font-size:12px;}
</style>
<path class="st0" d="M12,0c-1.1,0-2,0.9-2,2v2H4C2.9,4,2,4.8,2,6v40.3c0,0.6,0.3,1.1,0.7,1.4S3.6,48,4,48h42c0.4,0,0.9-0.1,1.3-0.4
	c0.4-0.3,0.7-0.8,0.7-1.4V6c0-1-0.8-2-1.9-2H40V2c0-1.1-0.9-2-2-2h-2c-1.1,0-2,0.9-2,2v2H16V2c0-1.1-0.9-2-2-2H12z M12,2h2v6h-2V2z
	 M36,2h2v6h-2V2z M4,6h6v2c0,1.1,0.9,2,2,2h2c1.1,0,2-0.9,2-2V6h18v2c0,1.1,0.9,2,2,2h2c1.1,0,2-0.9,2-2V6h6v7H4V6z M4,15h42v31H4
	V15z"/>
<text transform="matrix(1 0 0 1 16.7498 32.5003)" class="st1 st2 st3">TU</text>
</svg>
